<svg xmlns="http://www.w3.org/2000/svg" viewBox="0 0 512 512">
  <defs>
    <linearGradient id="fondo" x1="0" y1="0" x2="0" y2="1">
      <stop offset="0" stop-color="#1e3a8a"/>
      <stop offset="1" stop-color="#172d6e"/>
    </linearGradient>
  </defs>
  <!-- squircle -->
  <rect x="16" y="16" width="480" height="480" rx="112" fill="url(#fondo)"/>
  <!-- S monograma -->
  <path d="M 340 150
           C 340 116 306 96 258 96
           C 208 96 172 122 172 160
           C 172 196 202 212 252 224
           C 306 237 344 256 344 304
           C 344 348 304 376 254 376
           C 202 376 164 350 164 314"
        fill="none" stroke="#ffffff" stroke-width="44" stroke-linecap="round"/>
  <!-- libro abierto -->
  <path d="M 130 404 C 172 384 214 384 256 404 C 298 384 340 384 382 404 L 382 430 C 340 410 298 410 256 430 C 214 410 172 410 130 430 Z"
        fill="#ffffff"/>
  <line x1="256" y1="404" x2="256" y2="430" stroke="#1e3a8a" stroke-width="6"/>
  <!-- hoja verde -->
  <path d="M 256 96 C 256 60 280 36 316 32 C 314 68 292 92 256 96 Z" fill="#4ade80"/>
</svg>
